<svg xmlns="http://www.w3.org/2000/svg" fill="none" viewBox="0 0 28 28">
  <path d="M0 0h3v3H0zM0 3h3v3H0zM0 6h3v3H0zM0 9h3v3H0zM0 12h3v3H0zM0 15h3v3H0zM0 18h3v3H0zM0 21h3v3H0zM0 24h3v3H0zM0 27h3v3H0zM0 30h3v3H0zM0 33h3v3H0zM0 36h3v3H0zM33 0v3h-3V0z"/>
  <path d="M30.003 0v3h-3V0zM27 0v3h-3V0zM24 0v3h-3V0zM20.999 0v3h-3V0z"/>
  <path d="M18 0v3h-3V0zM14.999 0v3h-3V0z"/>
  <path d="M12 0v3H9V0zM8.996 0v3h-3V0z"/>
  <path d="M6 0v3H3V0zM36 3v3h-3V3zM8.996 6v3h-3V6zM8.996 3v3h-3V3zM8.996 9v3h-3V9zM30.003 6v3h-3V6zM30.003 3v3h-3V3zM30.003 9v3h-3V9zM24 6v3h-3V6zM24 3v3h-3V3zM24 9v3h-3V9zM30.003 12v3h-3v-3zM27 12v3h-3v-3zM24 12v3h-3v-3zM20.999 12v3h-3v-3z"/>
  <path d="M18 12v3h-3v-3zM14.999 12v3h-3v-3z"/>
  <path d="M12 12v3H9v-3zM8.996 12v3h-3v-3zM33 21v3h-3v-3z"/>
  <path d="M30.003 21v3h-3v-3zM27 21v3h-3v-3zM24 21v3h-3v-3zM20.999 21v3h-3v-3z"/>
  <path d="M18 21v3h-3v-3zM14.999 21v3h-3v-3z"/>
  <path d="M12 21v3H9v-3zM8.996 21v3h-3v-3zM33 24v3h-3v-3zM8.996 24v3h-3v-3zM33 27v3h-3v-3zM8.996 27v3h-3v-3zM33 30v3h-3v-3zM8.996 30v3h-3v-3zM8.996 33v3h-3v-3zM33 33v3h-3v-3zM36 36v3h-3v-3zM33 36v3h-3v-3z"/>
</svg>